<?xml version="1.0" standalone="no"?>
<!DOCTYPE svg PUBLIC "-//W3C//DTD SVG 20010904//EN"
 "http://www.w3.org/TR/2001/REC-SVG-20010904/DTD/svg10.dtd">
<svg version="1.0" xmlns="http://www.w3.org/2000/svg"
 width="2500.000000pt" height="2500.000000pt" viewBox="0 0 2500.000000 2500.000000"
 preserveAspectRatio="xMidYMid meet">
<metadata>
Created by potrace 1.14, written by Peter Selinger 2001-2017
</metadata>
<g transform="translate(0.000000,2500.000000) scale(0.100000,-0.100000)"
fill="#000000" stroke="none">
<path d="M12069 24996 c-2 -2 -76 -7 -164 -10 -87 -4 -180 -9 -205 -11 -25 -3
-83 -7 -130 -10 -47 -3 -105 -7 -130 -10 -84 -7 -175 -16 -225 -21 -68 -7
-120 -13 -180 -18 -27 -3 -66 -8 -85 -11 -36 -5 -73 -10 -150 -20 -25 -3 -56
-7 -69 -10 -14 -2 -45 -7 -70 -10 -25 -3 -57 -7 -71 -10 -14 -3 -45 -8 -70
-11 -25 -3 -63 -9 -85 -14 -22 -5 -60 -12 -85 -15 -44 -6 -271 -49 -320 -60
-14 -3 -36 -7 -50 -10 -14 -2 -47 -9 -75 -15 -27 -6 -59 -13 -70 -16 -235 -45
-743 -180 -1065 -282 -63 -20 -117 -36 -120 -37 -107 -24 -835 -296 -1045
-390 -27 -13 -88 -40 -135 -60 -1016 -447 -1987 -1042 -2855 -1749 -168 -136
-227 -187 -440 -376 -292 -260 -678 -643 -935 -929 -41 -46 -84 -93 -95 -105
-40 -45 -125 -144 -147 -172 -13 -16 -30 -36 -38 -45 -23 -23 -60 -68 -105
-124 -45 -56 -75 -92 -90 -109 -5 -6 -23 -29 -40 -51 -16 -22 -34 -45 -40 -51
-6 -6 -37 -47 -70 -90 -33 -43 -63 -80 -67 -82 -5 -2 -8 -8 -8 -13 0 -6 -8
-19 -19 -30 -23 -25 -221 -297 -221 -304 0 -2 -9 -15 -20 -27 -19 -23 -208
-298 -239 -348 -9 -15 -37 -58 -62 -96 -25 -38 -48 -76 -52 -84 -4 -8 -32 -53
-62 -100 -53 -83 -185 -306 -240 -405 -16 -27 -37 -66 -48 -85 -11 -19 -35
-64 -55 -100 -19 -36 -48 -90 -65 -120 -38 -68 -235 -463 -278 -556 -189 -411
-360 -832 -463 -1139 -9 -27 -21 -59 -26 -70 -5 -11 -27 -78 -51 -150 -23 -71
-48 -150 -56 -175 -8 -25 -17 -52 -19 -60 -2 -8 -22 -76 -45 -150 -22 -74 -42
-143 -44 -154 -3 -10 -11 -43 -20 -72 -13 -47 -91 -343 -100 -384 -70 -309
-136 -627 -150 -730 -4 -24 -8 -47 -10 -50 -3 -5 -8 -33 -21 -125 -3 -27 -8
-59 -10 -70 -3 -11 -7 -36 -9 -55 -3 -19 -7 -44 -10 -55 -2 -11 -7 -47 -10
-80 -4 -33 -8 -67 -10 -75 -3 -8 -7 -42 -11 -74 -3 -33 -7 -67 -9 -75 -2 -9
-6 -45 -9 -81 -4 -36 -10 -83 -13 -105 -7 -50 -9 -70 -17 -175 -4 -47 -9 -96
-11 -110 -2 -14 -7 -72 -10 -130 -4 -58 -9 -125 -10 -150 -27 -347 -27 -1173
-1 -1585 12 -181 18 -262 21 -284 2 -13 7 -63 11 -110 3 -47 8 -97 10 -111 2
-14 7 -52 9 -85 3 -33 8 -73 10 -90 2 -16 7 -52 10 -80 3 -27 12 -95 20 -150
8 -55 17 -125 20 -155 4 -30 8 -61 11 -69 3 -8 7 -30 10 -50 3 -20 9 -61 14
-91 5 -30 12 -71 15 -90 3 -20 17 -94 30 -165 14 -72 27 -143 30 -160 3 -16 7
-39 9 -50 5 -21 45 -204 52 -236 2 -11 6 -27 8 -38 83 -369 295 -1104 379
-1311 6 -14 11 -29 12 -35 0 -5 5 -19 9 -30 20 -52 38 -99 76 -205 44 -120
180 -463 205 -515 8 -16 39 -86 69 -155 219 -503 577 -1178 836 -1575 22 -33
43 -67 46 -75 9 -19 204 -312 292 -440 62 -89 371 -509 396 -537 6 -7 16 -18
21 -25 338 -437 843 -992 1246 -1370 92 -86 295 -272 326 -299 35 -30 188
-162 214 -184 62 -53 248 -205 323 -263 44 -34 88 -68 97 -76 9 -7 52 -40 95
-72 43 -33 85 -64 94 -71 8 -7 40 -30 70 -52 30 -22 60 -44 65 -48 12 -11 155
-110 250 -175 39 -26 75 -51 80 -55 14 -11 160 -106 280 -183 55 -35 116 -73
135 -85 86 -55 151 -95 154 -95 2 0 43 -24 92 -54 95 -57 260 -150 309 -174
17 -8 37 -21 47 -29 9 -8 22 -15 30 -17 7 -1 20 -6 28 -11 67 -44 579 -298
765 -380 17 -7 59 -26 95 -42 36 -17 117 -51 180 -78 63 -26 129 -53 145 -60
65 -28 84 -36 195 -79 196 -76 474 -175 605 -216 39 -12 79 -25 90 -30 27 -12
413 -128 445 -134 14 -2 25 -5 25 -6 0 -2 -17 3 280 -74 210 -54 519 -125 615
-142 14 -2 45 -9 70 -14 99 -21 311 -57 500 -85 58 -9 116 -18 130 -20 69 -11
190 -27 230 -30 25 -3 65 -8 90 -11 25 -4 61 -8 80 -10 19 -1 58 -5 85 -8 177
-20 424 -38 730 -53 296 -15 1171 -7 1365 12 19 2 80 6 135 10 55 3 116 8 135
10 19 2 67 6 105 9 39 4 88 8 110 11 22 3 60 7 85 10 25 2 65 7 90 10 25 3 68
7 95 10 28 3 61 8 75 10 24 5 57 9 146 21 23 2 53 7 65 9 13 3 44 7 69 10 25
4 68 10 95 15 28 5 66 11 85 14 19 3 60 10 90 16 30 6 69 13 85 15 30 5 321
63 360 72 11 2 31 6 45 9 14 2 31 7 39 10 8 2 28 7 45 10 17 2 76 16 131 30
55 14 109 27 120 29 36 7 58 13 180 45 394 104 710 204 1170 370 240 87 670
268 945 397 58 28 107 50 110 51 33 8 665 342 780 412 50 31 152 90 155 90 3
0 192 114 285 173 87 54 474 310 480 316 3 4 34 26 70 50 310 211 860 651
1189 949 240 218 575 548 776 767 66 71 131 141 145 156 14 14 50 55 80 90 30
35 57 66 60 69 24 22 317 377 380 460 14 18 30 38 36 44 18 19 326 435 374
506 13 19 27 37 30 40 12 10 299 448 377 575 120 195 291 491 395 685 91 168
358 711 358 726 0 3 16 39 35 81 43 90 149 342 198 468 19 50 51 131 70 180
48 124 160 441 213 608 80 250 227 775 250 897 3 14 12 52 21 85 8 33 16 67
18 75 4 19 63 302 75 360 5 25 12 57 14 73 3 15 10 55 16 90 7 34 14 75 16 91
2 15 5 35 8 45 3 9 8 36 11 61 3 25 8 52 10 60 2 8 7 39 10 69 4 30 9 63 11
75 6 33 43 315 49 381 3 33 8 71 10 85 2 14 7 57 10 95 3 39 8 84 10 100 2 17
7 68 10 115 4 47 8 101 10 120 17 148 20 653 20 3340 0 2659 -3 3189 -20 3293
-2 12 -6 54 -10 92 -11 122 -50 384 -90 610 -3 17 -26 122 -51 235 -60 267
-86 359 -189 680 -59 180 -138 401 -179 494 -7 17 -33 76 -56 131 -231 541
-513 1031 -878 1525 -63 85 -118 157 -121 160 -4 3 -31 37 -60 75 -30 39 -59
75 -65 80 -6 6 -33 37 -61 70 -91 111 -304 343 -411 449 -289 284 -531 493
-829 716 -258 192 -578 402 -809 529 -31 17 -82 45 -113 63 -336 185 -807 389
-1213 524 -343 114 -836 237 -1115 278 -23 4 -50 8 -60 10 -58 10 -115 18
-285 40 -142 17 -194 23 -300 32 -41 3 -100 8 -130 11 -61 6 -5875 15 -5881 9z"/>
</g>
</svg>
